# xmcd CD database file
#
# Track frame offsets:
#	150
#	33347
#	46320
#	70897
#	91515
#	120350
#	142217
#	160727
#	181965
#	207162
#	225817
#	238275
#
# Disc length: 3450 seconds
#
# Revision: 2
# Processed by: cddbd v1.5PL3 Copyright (c) Steve Scherf et al.
# Submitted via: CDex 1.51
#
DISCID=950d780c
DTITLE=LIZZY BORDEN - Master Of Disguise
DYEAR=1989
DGENRE=Metal
TTITLE0=Master Of Disguise
TTITLE1=One False Move
TTITLE2=Love Is A Crime
TTITLE3=Sins Of The Flesh
TTITLE4=Phantoms
TTITLE5=Never Too Young
TTITLE6=Be One Of Us
TTITLE7=Psychodrama
TTITLE8=Waiting In The Wings
TTITLE9=Roll Over And Play Dead
TTITLE10=Under The Rose
TTITLE11=We Got The Power
EXTD=1989","Metal Blade Records","Alex Waltman","Elliot Solomon","Brian Slagel YEAR: 1989
EXTT0=
EXTT1=
EXTT2=
EXTT3=
EXTT4=
EXTT5=
EXTT6=
EXTT7=
EXTT8=
EXTT9=
EXTT10=
EXTT11=
PLAYORDER=
